# xmcd
#
# Track frame offsets: 
#        150
#        21530
#        37950
#        57622
#        75965
#        96398
#        122184
#        158245
#        177760
#        202080
#        225906
#        238467
#
# Disc length: 3475 seconds
#
# Revision: 0
# Processed by: cddbd v1.5.2PL0 Copyright (c) Steve Scherf et al.
# Submitted via: ExactAudioCopy v0.99pb3
#
DISCID=a00d910c
DTITLE=Rowland Salley - Killing The Blues
DYEAR=2003
DGENRE=Country
TTITLE0=Tumbleweed
TTITLE1=Closer
TTITLE2=Blue Rainbow
TTITLE3=Killing The Blues
TTITLE4=Sugar Blues
TTITLE5=Impression
TTITLE6=Memphis Girl
TTITLE7=Midnight
TTITLE8=Destination
TTITLE9=Wrecking Ball
TTITLE10=Pocket
TTITLE11=Don't Let The Rain
EXTD=
EXTT0=
EXTT1=
EXTT2=
EXTT3=
EXTT4=
EXTT5=
EXTT6=
EXTT7=
EXTT8=
EXTT9=
EXTT10=
EXTT11=
PLAYORDER=
